<svg width="24" height="23" viewBox="0 0 24 23" fill="none" xmlns="http://www.w3.org/2000/svg">
<path d="M17.4 -4.95911e-05C18.6 -4.95911e-05 19.704 0.311951 20.712 0.935951C21.72 1.55995 22.512 2.40795 23.088 3.47995C23.696 4.59995 24 5.83995 24 7.19995C24 9.05595 23.568 10.84 22.704 12.552C21.968 14.008 20.92 15.408 19.56 16.752C18.504 17.808 17.248 18.84 15.792 19.848C14.976 20.408 13.904 21.08 12.576 21.864L12 22.2L11.424 21.864C10.096 21.08 9.024 20.408 8.208 19.848C6.752 18.84 5.496 17.808 4.44 16.752C3.08 15.408 2.032 14.008 1.296 12.552C0.432 10.84 0 9.05595 0 7.19995C0 5.83995 0.304 4.59995 0.912 3.47995C1.488 2.40795 2.28 1.55995 3.288 0.935951C4.296 0.311951 5.4 -4.95911e-05 6.6 -4.95911e-05C7.64 0.0159512 8.672 0.271952 9.696 0.76795C10.56 1.18395 11.328 1.72795 12 2.39995C12.672 1.72795 13.44 1.18395 14.304 0.76795C15.328 0.255951 16.36 -4.95911e-05 17.4 -4.95911e-05ZM13.128 18.744C14.216 18.056 15.184 17.376 16.032 16.704C17.856 15.248 19.232 13.752 20.16 12.216C21.12 10.616 21.6 8.95195 21.6 7.22395C21.6 6.29595 21.416 5.46395 21.048 4.72795C20.68 3.99195 20.176 3.42395 19.536 3.02395C18.896 2.62395 18.184 2.41595 17.4 2.39995C16.76 2.39995 16.112 2.55595 15.456 2.86795C14.8 3.17995 14.216 3.59195 13.704 4.10395L12 5.80795L10.296 4.10395C9.784 3.59195 9.2 3.17995 8.544 2.86795C7.888 2.55595 7.24 2.39995 6.6 2.39995C5.832 2.39995 5.128 2.60795 4.488 3.02395C3.848 3.43995 3.34 4.01195 2.964 4.73995C2.588 5.46795 2.4 6.29595 2.4 7.22395C2.4 8.95195 2.88 10.616 3.84 12.216C4.768 13.752 6.144 15.248 7.968 16.704C8.816 17.376 9.784 18.056 10.872 18.744C11.208 18.952 11.584 19.176 12 19.416C12.416 19.176 12.792 18.952 13.128 18.744Z" fill="#1E88E5"/>
</svg>
