<svg width="22" height="23" viewBox="0 0 22 23" fill="none" xmlns="http://www.w3.org/2000/svg">
<path d="M21.6 4.76837e-05V2.40005C21.6 6.11205 20.944 9.27205 19.632 11.88C18.416 14.312 16.696 16.152 14.472 17.4C12.36 18.6 9.936 19.2 7.2 19.2H2.688C2.496 20.288 2.4 21.488 2.4 22.8H0C0 21.168 0.136 19.672 0.408 18.312C0.136 16.76 0 14.656 0 12C0 10.368 0.312 8.80805 0.936 7.32005C1.544 5.89605 2.404 4.62805 3.516 3.51605C4.628 2.40405 5.896 1.54405 7.32 0.936047C8.808 0.312046 10.368 4.76837e-05 12 4.76837e-05C12.48 4.76837e-05 13.232 0.0800476 14.256 0.240047C15.088 0.368048 15.744 0.448048 16.224 0.480047C17.04 0.544046 17.84 0.552048 18.624 0.504047C19.568 0.424047 20.56 0.256046 21.6 4.76837e-05ZM12 2.40005C10.256 2.40005 8.64 2.84005 7.152 3.72005C5.712 4.56805 4.568 5.71205 3.72 7.15205C2.84 8.64005 2.4 10.256 2.4 12V13.248C3.136 12.096 4.064 11.024 5.184 10.032C6.256 9.08805 7.528 8.20005 9 7.36805L10.2 9.43205C8.424 10.456 6.992 11.536 5.904 12.672C4.752 13.872 3.896 15.248 3.336 16.8H7.2C9.616 16.8 11.716 16.272 13.5 15.216C15.284 14.16 16.656 12.608 17.616 10.56C18.624 8.43205 19.152 5.86405 19.2 2.85605C18.4 2.93605 17.584 2.96005 16.752 2.92805C16 2.88005 15.128 2.78405 14.136 2.64005C13.432 2.52805 12.96 2.46005 12.72 2.43605C12.48 2.41205 12.24 2.40005 12 2.40005Z" fill="#1E88E5"/>
</svg>
