<svg width="22" height="27" viewBox="0 0 22 27" fill="none" xmlns="http://www.w3.org/2000/svg">
<path d="M10.8 -9.91821e-05L20.664 2.1839C20.936 2.2479 21.16 2.3919 21.336 2.6159C21.512 2.8399 21.6 3.0879 21.6 3.3599V15.3359C21.6 16.5519 21.316 17.6879 20.748 18.7439C20.18 19.7999 19.392 20.6639 18.384 21.3359L10.8 26.3999L3.216 21.3359C2.208 20.6639 1.42 19.7999 0.852 18.7439C0.284 17.6879 0 16.5519 0 15.3359V3.3599C0 3.0879 0.088 2.8399 0.264 2.6159C0.44 2.3919 0.664 2.2479 0.936 2.1839L10.8 -9.91821e-05ZM10.8 2.4479L2.4 4.3199V15.3359C2.4 16.1519 2.588 16.9119 2.964 17.6159C3.34 18.3199 3.864 18.8959 4.536 19.3439L10.8 23.5199L17.064 19.3439C17.736 18.8959 18.26 18.3199 18.636 17.6159C19.012 16.9119 19.2 16.1519 19.2 15.3359V4.3199L10.8 2.4479ZM16.152 8.6639L17.832 10.3679L10.2 17.9999L5.112 12.9119L6.816 11.2079L10.2 14.6159L16.152 8.6639Z" fill="#1E88E5"/>
</svg>
