<svg width="20" height="26" viewBox="0 0 20 26" fill="none" xmlns="http://www.w3.org/2000/svg">
<path d="M7.176 19.2H12.024C12.104 18.512 12.328 17.84 12.696 17.184C13.016 16.592 13.488 15.952 14.112 15.264L14.448 14.904C14.912 14.424 15.168 14.16 15.216 14.112C15.728 13.472 16.12 12.768 16.392 12C16.664 11.232 16.8 10.432 16.8 9.59995C16.8 8.30395 16.472 7.09595 15.816 5.97595C15.176 4.88795 14.312 4.02395 13.224 3.38395C12.104 2.72795 10.896 2.39995 9.6 2.39995C8.304 2.39995 7.096 2.72795 5.976 3.38395C4.888 4.02395 4.024 4.88795 3.384 5.97595C2.728 7.09595 2.4 8.30395 2.4 9.59995C2.4 10.432 2.536 11.232 2.808 12C3.08 12.768 3.472 13.464 3.984 14.088C4.032 14.152 4.288 14.424 4.752 14.904L5.088 15.264C5.712 15.952 6.184 16.592 6.504 17.184C6.872 17.84 7.096 18.512 7.176 19.2ZM12 21.6H7.2V22.8H12V21.6ZM2.112 15.6C1.44 14.768 0.92 13.848 0.552 12.84C0.184 11.8 0 10.72 0 9.59995C0 7.85595 0.44 6.23995 1.32 4.75195C2.168 3.31195 3.312 2.16795 4.752 1.31995C6.24 0.439951 7.856 -4.95911e-05 9.6 -4.95911e-05C11.344 -4.95911e-05 12.96 0.439951 14.448 1.31995C15.888 2.16795 17.032 3.31195 17.88 4.75195C18.76 6.23995 19.2 7.85595 19.2 9.59995C19.2 10.72 19.016 11.8 18.648 12.84C18.28 13.848 17.76 14.768 17.088 15.6C16.976 15.744 16.752 15.984 16.416 16.32C15.792 16.976 15.352 17.496 15.096 17.88C14.632 18.552 14.4 19.192 14.4 19.8V22.8C14.4 23.232 14.292 23.632 14.076 24C13.86 24.368 13.568 24.66 13.2 24.876C12.832 25.092 12.432 25.2 12 25.2H7.2C6.768 25.2 6.368 25.092 6 24.876C5.632 24.66 5.34 24.368 5.124 24C4.908 23.632 4.8 23.232 4.8 22.8V19.8C4.8 19.192 4.568 18.552 4.104 17.88C3.848 17.496 3.408 16.976 2.784 16.32C2.448 15.984 2.224 15.744 2.112 15.6ZM10.8 9.59995H13.8L8.4 16.8V12H5.4L10.8 4.79995V9.59995Z" fill="#1E88E5"/>
</svg>
